<?xml version="1.0" encoding="UTF-8"?>
<svg width="507px" height="105px" viewBox="0 0 507 105" version="1.1" xmlns="http://www.w3.org/2000/svg" xmlns:xlink="http://www.w3.org/1999/xlink">
    <title>IronHarch Copy 4</title>
    <defs>
        <linearGradient x1="50%" y1="0%" x2="50%" y2="100%" id="linearGradient-1">
            <stop stop-color="#BA2438" offset="0%"></stop>
            <stop stop-color="#960014" offset="100%"></stop>
        </linearGradient>
    </defs>
    <g id="Page-1" stroke="none" stroke-width="1" fill="none" fill-rule="evenodd" stroke-linejoin="round">
        <path d="M53.6383204,5.866 L53.6383204,31.094 L42.2983204,31.094 L42.2983204,73.906 L53.6383204,73.906 L53.6383204,99.134 L5.73032037,99.134 L5.73032037,73.906 L17.0703204,73.906 L17.0703204,31.094 L5.73032037,31.094 L5.73032037,5.866 L53.6383204,5.866 Z M95.3625592,28.4864709 L109.58136,38.577233 L109.58136,65.114 L84.3533603,65.114 L84.3533603,58.6460584 L75.5613603,61.6019894 L75.5613603,99.134 L50.3333603,99.134 L50.3333603,50.8740809 L57.4161222,41.1352832 L95.3625592,28.4864709 Z M176.438241,28.4864709 L214.384678,41.1352832 L221.46744,50.8740809 L221.46744,99.134 L196.23944,99.134 L196.23944,61.6019894 L187.44744,58.6460584 L187.44744,99.134 L162.21944,99.134 L162.21944,38.577233 L176.438241,28.4864709 Z M243.39048,5.866 L243.39048,39.886 L252.18248,39.886 L252.18248,5.866 L277.41048,5.866 L277.41048,99.134 L252.18248,99.134 L252.18248,65.114 L243.39048,65.114 L243.39048,99.134 L218.16248,99.134 L218.16248,5.866 L243.39048,5.866 Z M310.348864,28.708 L317.545708,31.5431202 L330.308653,44.3060656 L333.35352,51.4832512 L333.35352,88.5910678 L322.810588,99.134 L284.648452,99.134 L274.10552,88.5910678 L274.10552,74.1632512 L277.150387,66.9860656 L289.913332,54.2231202 L291.055,53.773 L274.10552,53.774 L274.10552,28.708 L310.348864,28.708 Z M375.077759,28.4864709 L389.29656,38.577233 L389.29656,65.114 L364.06856,65.114 L364.06856,58.6460584 L355.27656,61.6019894 L355.27656,99.134 L330.04856,99.134 L330.04856,50.8740809 L337.131322,41.1352832 L375.077759,28.4864709 Z M431.020799,28.4864709 L445.2396,38.577233 L445.2396,65.114 L420.0116,65.114 L420.0116,58.6460584 L411.2196,61.6019894 L411.2196,67.3918301 L424.24794,73.906 L445.2396,73.906 L445.2396,99.134 L420.698567,99.134 L416.16389,98.0543151 L391.698863,85.8218016 L385.9916,76.6023762 L385.9916,50.8740809 L393.074362,41.1352832 L431.020799,28.4864709 Z M467.16264,5.866 L467.16264,39.886 L478.245389,39.886 L485.422574,42.9308666 L498.137773,55.6460656 L501.18264,62.8232512 L501.18264,99.134 L475.95464,99.134 L475.95464,68.9890678 L472.079572,65.114 L467.16264,65.114 L467.16264,99.134 L441.93464,99.134 L441.93464,5.866 L467.16264,5.866 Z M134.414202,29.1567309 L159.817137,41.8581984 L165.5244,51.0776238 L165.5244,76.1967488 L162.479534,83.3739344 L149.318919,96.534549 L137.386598,98.5232691 L111.983664,85.8218016 L106.2764,76.6023762 L106.2764,51.4832512 L109.321267,44.3060656 L122.481881,31.145451 L134.414202,29.1567309 Z M132.675665,56.4778026 L131.5044,57.6490678 L131.5044,67.3918301 L139.125135,71.2021974 L140.2964,70.0309322 L140.2964,60.2881699 L132.675665,56.4778026 Z" id="IronHarch-Copy-4" stroke="#E7E7E7" stroke-width="10" fill="url(#linearGradient-1)" fill-rule="nonzero"></path>
    </g>
</svg>